<!-- icon666.com - MILLIONS vector ICONS FREE --><svg id="Layer_3" viewBox="0 0 48 48" xmlns="http://www.w3.org/2000/svg" data-name="Layer 3"><path d="m38 23.25h-17.25v-.75a3.25 3.25 0 0 0 -6.5 0v.75h-4.25a.75.75 0 0 0 0 1.5h4.25v.75a3.25 3.25 0 0 0 6.5 0v-.75h17.25a.75.75 0 0 0 0-1.5zm-18.75 2.25a1.75 1.75 0 0 1 -3.5 0v-3a1.75 1.75 0 0 1 3.5 0z"></path><path d="m38 13.25h-5.25v-.75a3.25 3.25 0 0 0 -6.5 0v.75h-16.25a.75.75 0 0 0 0 1.5h16.25v.75a3.25 3.25 0 0 0 6.5 0v-.75h5.25a.75.75 0 0 0 0-1.5zm-6.75 2.25a1.75 1.75 0 0 1 -3.5 0v-3a1.75 1.75 0 0 1 3.5 0z"></path><path d="m38 33.25h-5.25v-.75a3.25 3.25 0 0 0 -6.5 0v.75h-16.25a.75.75 0 0 0 0 1.5h16.25v.75a3.25 3.25 0 0 0 6.5 0v-.75h5.25a.75.75 0 0 0 0-1.5zm-6.75 2.25a1.75 1.75 0 0 1 -3.5 0v-3a1.75 1.75 0 0 1 3.5 0z"></path></svg>